#!OML:ASF F:\VICON\USERDATA\INSTALL\rory3\rory3.ASF
:FULLY-SPECIFIED
:DEGREES
665
root 0.364935 17.9432 -0.219713 2.31106 -33.3569 -0.545762
lowerback -0.67325 -1.40126 -3.86682
upperback -0.462213 -1.85216 1.91053
thorax 0.0884489 -0.922012 4.12011
lowerneck -19.7997 -3.64158 -11.0987
upperneck 25.7849 -2.93015 4.5178
head 12.0281 -1.86997 3.08459
rclavicle 1.71141e-014 -1.98785e-016
rhumerus -19.2698 43.6994 -80.5953
rradius 122.868
rwrist 39.2325
rhand 5.26901 7.17327
rfingers 7.12502
rthumb 30.6265 -20.2987
lclavicle 1.71141e-014 -1.98785e-016
lhumerus -39.5012 -28.9529 101.025
lradius 89.711
lwrist 10.0177
lhand -21.548 27.9698
lfingers 7.12502
lthumb 4.84527 57.8944
rfemur -7.57877 4.65588 12.9966
rtibia 22.3614
rfoot -15.4496 -8.7987
rtoes 2.20919
lfemur 1.2837 0.8878 -21.7043
ltibia 14.5163
lfoot -12.1189 10.3407
ltoes -12.0506
666
root 0.362837 17.9427 -0.215918 2.25031 -33.4848 -0.559609
lowerback -0.658961 -1.35177 -3.81165
upperback -0.422878 -1.78672 1.9329
thorax 0.113373 -0.890631 4.11275
lowerneck -19.674 -3.60404 -11.1473
upperneck 25.6967 -2.84773 4.42737
head 11.9614 -1.84861 3.07043
rclavicle -3.05228e-014 8.15017e-015
rhumerus -19.2782 43.5436 -80.5937
rradius 122.846
rwrist 38.1615
rhand 5.77223 8.01808
rfingers 7.12502
rthumb 31.1063 -19.3631
lclavicle -3.05228e-014 8.15017e-015
lhumerus -39.4468 -29.0424 101.053
lradius 89.6549
lwrist 9.95001
lhand -21.6136 27.9051
lfingers 7.12502
lthumb 4.78187 57.8312
rfemur -7.55088 4.63601 12.9964
rtibia 22.3956
rfoot -15.3705 -8.65317
rtoes 1.94608
lfemur 1.39817 0.792081 -21.7366
ltibia 14.5097
lfoot -12.1507 10.5777
ltoes -12.3766
667
root 0.360344 17.9451 -0.233132 2.36247 -33.3443 -0.559063
lowerback -0.44758 -1.40426 -4.0166
upperback -0.55749 -1.86455 2.06079
thorax -0.125225 -0.921197 4.36823
lowerneck -19.6845 -3.5426 -11.2898
upperneck 25.8608 -2.71936 4.44027
head 12.0193 -1.80891 3.12301
rclavicle -4.90191e-014 -1.19271e-015
rhumerus -19.3601 43.5224 -80.678
rradius 122.793
rwrist 37.013
rhand 6.32556 8.74726
rfingers 7.12502
rthumb 31.6335 -18.5315
lclavicle -4.90191e-014 -1.19271e-015
lhumerus -39.4999 -28.9404 101.192
lradius 89.6911
lwrist 9.82894
lhand -21.3988 28.186
lfingers 7.12502
lthumb 4.98931 58.1072
rfemur -7.70825 4.59888 13.0529
rtibia 22.4492
rfoot -15.3686 -8.78771
rtoes 1.80207
lfemur 1.22594 1.0377 -21.6354
ltibia 14.4581
lfoot -12.0168 10.2565
ltoes -13.1576
668
root 0.357888 17.942 -0.232197 2.26138 -33.4455 -0.524643
lowerback -0.220975 -1.37103 -4.15518
upperback -0.641235 -1.82887 2.1913
thorax -0.33388 -0.896034 4.59024
lowerneck -19.602 -3.51058 -11.5362
upperneck 25.9813 -2.60035 4.42018
head 12.0449 -1.78822 3.17819
rclavicle -1.04051e-014 -1.15295e-014
rhumerus -19.5982 43.5468 -80.721
rradius 122.784
rwrist 35.9205
rhand 6.60337 9.71522
rfingers 7.12502
rthumb 31.8981 -17.5111
lclavicle -1.04051e-014 -1.15295e-014
lhumerus -39.6779 -28.7777 101.463
lradius 89.7816
lwrist 9.7206
lhand -21.2153 28.3633
lfingers 7.12502
lthumb 5.16646 58.2804
rfemur -7.66849 4.64918 13.03
rtibia 22.4972
rfoot -15.3599 -8.80596
rtoes 1.16789
lfemur 1.35897 1.09159 -21.6818
ltibia 14.3876
lfoot -11.9695 10.3675
ltoes -13.5517
669
root 0.356188 17.9466 -0.236619 2.39337 -33.3635 -0.443204
lowerback -0.272566 -1.39334 -4.1863
upperback -0.738861 -1.85749 2.17335
thorax -0.401906 -0.906534 4.58928
lowerneck -19.4815 -3.4984 -11.5119
upperneck 25.9189 -2.55882 4.25885
head 11.9911 -1.78768 3.11814
rclavicle 4.33257e-014 -1.47101e-014
rhumerus -19.8334 43.4341 -80.8931
rradius 122.789
rwrist 35.0061
rhand 6.69976 10.7656
rfingers 7.12502
rthumb 31.9899 -16.4424
lclavicle 4.33257e-014 -1.47101e-014
lhumerus -39.7691 -28.8079 101.503
lradius 89.8505
lwrist 9.6624
lhand -20.9146 28.2684
lfingers 7.12502
lthumb 5.45678 58.1781
rfemur -7.85996 4.59927 12.9651
rtibia 22.5325
rfoot -15.4014 -8.85549
rtoes 1.03783
lfemur 1.18482 1.12694 -21.7107
ltibia 14.3258
lfoot -11.9798 10.1964
ltoes -13.2789
670
root 0.353668 17.9458 -0.222392 2.36183 -33.5403 -0.422942
lowerback -0.588253 -1.35352 -3.77971
upperback -0.569447 -1.79246 1.91794
thorax -0.0778187 -0.886468 4.0833
lowerneck -19.5013 -3.427 -11.1694
upperneck 25.7905 -2.52571 4.12965
head 11.9325 -1.75087 3.01489
rclavicle 3.60111e-014 7.95139e-016
rhumerus -19.7853 43.284 -81.2814
rradius 122.714
rwrist 34.1203
rhand 6.71332 11.5126
rfingers 7.12502
rthumb 32.0028 -15.6928
lclavicle 3.60111e-014 7.95139e-016
lhumerus -39.6342 -29.0754 101.091
lradius 89.8812
lwrist 9.73931
lhand -20.9109 28.1765
lfingers 7.12502
lthumb 5.46034 58.0861
rfemur -7.84417 4.63663 12.8961
rtibia 22.5572
rfoot -15.4358 -8.62609
rtoes 1.67052
lfemur 1.31274 0.92639 -21.8068
ltibia 14.2755
lfoot -12.0427 10.5323
ltoes -12.58
671
root 0.351599 17.9471 -0.228776 2.39564 -33.4358 -0.448927
lowerback -0.667113 -1.42167 -3.55597
upperback -0.454849 -1.88064 1.76833
thorax 0.0808586 -0.936416 3.79702
lowerneck -19.5911 -3.34981 -11.0387
upperneck 25.7148 -2.47266 4.22738
head 11.9131 -1.69773 3.03758
rclavicle 6.75247e-014 -5.36719e-015
rhumerus -19.6155 43.3029 -81.5763
rradius 122.634
rwrist 33.0949
rhand 6.74144 11.9038
rfingers 7.12502
rthumb 32.0295 -15.2962
lclavicle 6.75247e-014 -5.36719e-015
lhumerus -39.4159 -29.3325 100.719
lradius 89.8726
lwrist 10.0624
lhand -21.2946 28.1898
lfingers 7.12502
lthumb 5.08993 58.1086
rfemur -7.83307 4.59421 12.9528
rtibia 22.5438
rfoot -15.4794 -8.70131
rtoes 1.54068
lfemur 1.26402 1.12324 -21.7177
ltibia 14.2608
lfoot -11.9433 10.2703
ltoes -12.7058
672
root 0.349719 17.9487 -0.237968 2.43348 -33.3173 -0.418093
lowerback -0.625802 -1.48206 -3.55566
upperback -0.449125 -1.9623 1.72233
thorax 0.0695028 -0.977098 3.74926
lowerneck -19.5873 -3.31741 -11.0213
upperneck 25.6796 -2.44864 4.28516
head 11.8961 -1.67664 3.06002
rclavicle 1.03489e-013 1.5704e-014
rhumerus -19.6114 43.378 -81.7816
rradius 122.585
rwrist 32.2545
rhand 6.69045 12.3923
rfingers 7.12502
rthumb 31.981 -14.8174
lclavicle 1.03489e-013 1.5704e-014
lhumerus -39.3414 -29.4544 100.581
lradius 89.8773
lwrist 10.2985
lhand -21.4371 28.0336
lfingers 7.12502
lthumb 4.95235 57.9558
rfemur -7.8709 4.55486 12.9588
rtibia 22.5312
rfoot -15.5475 -8.81078
rtoes 1.24953
lfemur 1.15494 1.34089 -21.6821
ltibia 14.2711
lfoot -11.8517 9.99411
ltoes -13.4155
673
root 0.347396 17.9474 -0.234673 2.41417 -33.3775 -0.464683
lowerback -0.604236 -1.46336 -3.44768
upperback -0.397835 -1.93813 1.69818
thorax 0.103527 -0.96664 3.66344
lowerneck -19.6263 -3.3141 -10.9388
upperneck 25.6615 -2.43769 4.19068
head 11.8935 -1.67478 3.0116
rclavicle 4.59441e-014 5.56597e-015
rhumerus -19.6487 43.4822 -81.9073
rradius 122.555
rwrist 31.4455
rhand 6.7112 12.8277
rfingers 7.12502
rthumb 32.0008 -14.3781
lclavicle 4.59441e-014 5.56597e-015
lhumerus -39.2076 -29.5002 100.472
lradius 89.9321
lwrist 10.322
lhand -21.0095 28.0883
lfingers 7.12502
lthumb 5.36514 58.0004
rfemur -7.82399 4.63935 12.9973
rtibia 22.5141
rfoot -15.5777 -8.74711
rtoes 1.6419
lfemur 1.21033 1.27374 -21.6694
ltibia 14.3135
lfoot -11.8357 10.154
ltoes -13.7391
674
root 0.346233 17.9473 -0.232928 2.436 -33.3736 -0.495789
lowerback -0.560922 -1.4506 -3.4025
upperback -0.402705 -1.92271 1.71479
thorax 0.0719705 -0.958259 3.65663
lowerneck -19.5914 -3.32791 -10.9447
upperneck 25.6106 -2.44728 4.15141
head 11.8677 -1.68349 2.99525
rclavicle 5.15411e-014 8.54774e-015
rhumerus -19.7948 43.6005 -81.9964
rradius 122.568
rwrist 30.7073
rhand 6.76774 13.0558
rfingers 7.12502
rthumb 32.0546 -14.1392
lclavicle 5.15411e-014 8.54774e-015
lhumerus -39.1046 -29.5175 100.501
lradius 89.9425
lwrist 10.3384
lhand -20.7 28.3573
lfingers 7.12502
lthumb 5.66395 58.2616
rfemur -7.81672 4.63213 13.0267
rtibia 22.4905
rfoot -15.5314 -8.74361
rtoes 1.87069
lfemur 1.19536 1.18714 -21.6586
ltibia 14.364
lfoot -11.8563 10.2562
ltoes -14.1483
